# xmcd
#
# Track frame offsets:
#	150
#	13884
#	27120
#	47275
#	59950
#	66800
#	85258
#	107532
#	128388
#	145635
#	164496
#	179058
#	180678
#	193464
#
# Disc length: 2788 seconds
#
# Revision: 1
# Processed by: cddbd v1.5.2PL0 Copyright (c) Steve Scherf et al.
# Submitted via: audiograbber 1.83.01
#
DISCID=c50ae20e
DTITLE=RJ Vandygriff - Cowboy to the BoneH
DYEAR=2015
DGENRE=Western
TTITLE0=Hurricane Deck
TTITLE1=Cowboy To The Bone
TTITLE2=What A Cowboy Was
TTITLE3=Auctioneer
TTITLE4=Intro
TTITLE5=Mr Jimmy Bussard
TTITLE6=William Bonney
TTITLE7=Cowboy Philosopher
TTITLE8=Ain't Dead Yet
TTITLE9=Cahsing Rainbows
TTITLE10=Way Of The Cowboy
TTITLE11=Bonus Intro
TTITLE12=Big Blue Diamonds
TTITLE13=Say Lady
EXTD=
EXTT0=
EXTT1=
EXTT2=
EXTT3=
EXTT4=
EXTT5=
EXTT6=
EXTT7=
EXTT8=
EXTT9=
EXTT10=
EXTT11=
EXTT12=
EXTT13=
PLAYORDER=
